<svg xmlns="http://www.w3.org/2000/svg" viewBox="0 0 64 64" fill="none">
  <defs>
    <linearGradient id="bossGradientFav" x1="0%" y1="0%" x2="100%" y2="100%">
      <stop offset="0%" style="stop-color:#2563EB" />
      <stop offset="100%" style="stop-color:#9333EA" />
    </linearGradient>
  </defs>

  <path d="M32 4 C14 4 4 18 4 36 C4 56 22 72 32 78 C42 72 60 56 60 36 C60 18 50 4 32 4Z" fill="url(#bossGradientFav)"/>
  
  <path d="M20 16 L26 26 L32 14 L38 26 L44 16 L44 28 H20 V16Z" fill="#F59E0B"/>
  
  <g transform="translate(1, 4)">
      <path d="M20 36 L28 28 L28 32 L23 36 L28 40 L28 44 L20 36 Z" fill="white"/>
      <path d="M44 36 L36 28 L36 32 L41 36 L36 40 L36 44 L44 36 Z" fill="white"/>
      <path d="M35 28 L29 44" stroke="white" stroke-width="3" stroke-linecap="round"/>
  </g>
</svg>